<?xml version="1.0" encoding="utf-8" standalone="no"?>
<!DOCTYPE svg PUBLIC "-//W3C//DTD SVG 1.1//EN"
  "http://www.w3.org/Graphics/SVG/1.1/DTD/svg11.dtd">
<svg xmlns:xlink="http://www.w3.org/1999/xlink" width="864pt" height="360pt" viewBox="0 0 864 360" xmlns="http://www.w3.org/2000/svg" version="1.1">
 <metadata>
  <rdf:RDF xmlns:dc="http://purl.org/dc/elements/1.1/" xmlns:cc="http://creativecommons.org/ns#" xmlns:rdf="http://www.w3.org/1999/02/22-rdf-syntax-ns#">
   <cc:Work>
    <dc:type rdf:resource="http://purl.org/dc/dcmitype/StillImage"/>
    <dc:date>2025-06-24T09:42:52.628980</dc:date>
    <dc:format>image/svg+xml</dc:format>
    <dc:creator>
     <cc:Agent>
      <dc:title>Matplotlib v3.10.3, https://matplotlib.org/</dc:title>
     </cc:Agent>
    </dc:creator>
   </cc:Work>
  </rdf:RDF>
 </metadata>
 <defs>
  <style type="text/css">*{stroke-linejoin: round; stroke-linecap: butt}</style>
 </defs>
 <g id="figure_1">
  <g id="patch_1">
   <path d="M 0 360 
L 864 360 
L 864 0 
L 0 0 
z
" style="fill: #ffffff"/>
  </g>
  <g id="axes_1">
   <g id="patch_2">
    <path d="M 50.96 315.16 
L 426.6 315.16 
L 426.6 27.97125 
L 50.96 27.97125 
z
" style="fill: #ffffff"/>
   </g>
   <g id="patch_3">
    <path d="M 68.034545 315.16 
L 409.525455 315.16 
L 409.525455 41.646905 
L 68.034545 41.646905 
z
" clip-path="url(#p3712e16fb1)" style="fill: #87ceeb"/>
   </g>
   <g id="matplotlib.axis_1">
    <g id="xtick_1">
     <g id="line2d_1">
      <defs>
       <path id="md1651d2164" d="M 0 0 
L 0 3.5 
" style="stroke: #000000; stroke-width: 0.8"/>
      </defs>
      <g>
       <use xlink:href="#md1651d2164" x="68.034545" y="315.16" style="stroke: #000000; stroke-width: 0.8"/>
      </g>
     </g>
     <g id="text_1">
      <!-- 0.6 -->
      <g transform="translate(60.966577 330.15375) scale(0.1 -0.1)">
       <defs>
        <path id="MicrosoftYaHei-30" d="M 284 2325 
Q 284 3606 709 4264 
Q 1134 4922 1941 4922 
Q 3478 4922 3478 2441 
Q 3478 1216 3045 567 
Q 2613 -81 1831 -81 
Q 1094 -81 689 534 
Q 284 1150 284 2325 
z
M 909 2353 
Q 909 425 1888 425 
Q 2850 425 2850 2384 
Q 2850 4413 1906 4413 
Q 909 4413 909 2353 
z
" transform="scale(0.015625)"/>
        <path id="MicrosoftYaHei-2e" d="M 372 322 
Q 372 491 487 606 
Q 603 722 775 722 
Q 950 722 1065 605 
Q 1181 488 1181 322 
Q 1181 159 1065 42 
Q 950 -75 772 -75 
Q 600 -75 486 42 
Q 372 159 372 322 
z
" transform="scale(0.015625)"/>
        <path id="MicrosoftYaHei-36" d="M 3181 4219 
Q 2803 4413 2391 4413 
Q 1763 4413 1381 3866 
Q 1000 3319 994 2372 
L 1009 2372 
Q 1353 3038 2106 3038 
Q 2734 3038 3109 2628 
Q 3484 2219 3484 1541 
Q 3484 831 3051 375 
Q 2619 -81 1947 -81 
Q 1209 -81 789 495 
Q 369 1072 369 2131 
Q 369 3413 920 4167 
Q 1472 4922 2372 4922 
Q 2888 4922 3181 4781 
L 3181 4219 
z
M 1031 1584 
Q 1031 1106 1286 765 
Q 1541 425 1963 425 
Q 2363 425 2613 719 
Q 2863 1013 2863 1475 
Q 2863 1975 2627 2253 
Q 2391 2531 1956 2531 
Q 1544 2531 1287 2250 
Q 1031 1969 1031 1584 
z
" transform="scale(0.015625)"/>
       </defs>
       <use xlink:href="#MicrosoftYaHei-30"/>
       <use xlink:href="#MicrosoftYaHei-2e" transform="translate(58.642578 0)"/>
       <use xlink:href="#MicrosoftYaHei-36" transform="translate(82.714844 0)"/>
      </g>
     </g>
    </g>
    <g id="xtick_2">
     <g id="line2d_2">
      <g>
       <use xlink:href="#md1651d2164" x="110.720909" y="315.16" style="stroke: #000000; stroke-width: 0.8"/>
      </g>
     </g>
     <g id="text_2">
      <!-- 0.7 -->
      <g transform="translate(103.65294 330.15375) scale(0.1 -0.1)">
       <defs>
        <path id="MicrosoftYaHei-37" d="M 3422 4463 
Q 2659 3131 2223 1998 
Q 1788 866 1684 0 
L 1047 0 
Q 1163 853 1594 1947 
Q 2025 3041 2747 4300 
L 347 4300 
L 347 4841 
L 3422 4841 
L 3422 4463 
z
" transform="scale(0.015625)"/>
       </defs>
       <use xlink:href="#MicrosoftYaHei-30"/>
       <use xlink:href="#MicrosoftYaHei-2e" transform="translate(58.642578 0)"/>
       <use xlink:href="#MicrosoftYaHei-37" transform="translate(82.714844 0)"/>
      </g>
     </g>
    </g>
    <g id="xtick_3">
     <g id="line2d_3">
      <g>
       <use xlink:href="#md1651d2164" x="153.407273" y="315.16" style="stroke: #000000; stroke-width: 0.8"/>
      </g>
     </g>
     <g id="text_3">
      <!-- 0.8 -->
      <g transform="translate(146.339304 330.15375) scale(0.1 -0.1)">
       <defs>
        <path id="MicrosoftYaHei-38" d="M 306 1350 
Q 306 1769 556 2122 
Q 806 2475 1200 2625 
Q 884 2803 700 3081 
Q 516 3359 516 3684 
Q 516 4028 692 4312 
Q 869 4597 1183 4759 
Q 1497 4922 1875 4922 
Q 2256 4922 2572 4761 
Q 2888 4600 3063 4315 
Q 3238 4031 3238 3684 
Q 3238 3366 3058 3086 
Q 2878 2806 2559 2625 
Q 2953 2472 3200 2119 
Q 3447 1766 3447 1350 
Q 3447 938 3250 611 
Q 3053 284 2690 103 
Q 2328 -78 1875 -78 
Q 1425 -78 1065 103 
Q 706 284 506 612 
Q 306 941 306 1350 
z
M 906 1378 
Q 906 947 1172 687 
Q 1438 428 1878 428 
Q 2309 428 2582 692 
Q 2856 956 2856 1378 
Q 2856 1778 2579 2051 
Q 2303 2325 1878 2325 
Q 1456 2325 1181 2058 
Q 906 1791 906 1378 
z
M 1081 3634 
Q 1081 3309 1312 3076 
Q 1544 2844 1878 2844 
Q 2206 2844 2445 3078 
Q 2684 3313 2684 3634 
Q 2684 3963 2454 4191 
Q 2225 4419 1878 4419 
Q 1534 4419 1307 4195 
Q 1081 3972 1081 3634 
z
" transform="scale(0.015625)"/>
       </defs>
       <use xlink:href="#MicrosoftYaHei-30"/>
       <use xlink:href="#MicrosoftYaHei-2e" transform="translate(58.642578 0)"/>
       <use xlink:href="#MicrosoftYaHei-38" transform="translate(82.714844 0)"/>
      </g>
     </g>
    </g>
    <g id="xtick_4">
     <g id="line2d_4">
      <g>
       <use xlink:href="#md1651d2164" x="196.093636" y="315.16" style="stroke: #000000; stroke-width: 0.8"/>
      </g>
     </g>
     <g id="text_4">
      <!-- 0.9 -->
      <g transform="translate(189.025668 330.15375) scale(0.1 -0.1)">
       <defs>
        <path id="MicrosoftYaHei-39" d="M 578 656 
Q 978 425 1441 425 
Q 2091 425 2448 937 
Q 2806 1450 2806 2394 
Q 2800 2388 2794 2394 
Q 2475 1788 1722 1788 
Q 1113 1788 713 2206 
Q 313 2625 313 3294 
Q 313 4006 750 4464 
Q 1188 4922 1884 4922 
Q 2606 4922 3012 4355 
Q 3419 3788 3419 2703 
Q 3419 1363 2894 641 
Q 2369 -81 1441 -81 
Q 931 -81 578 84 
L 578 656 
z
M 931 3372 
Q 931 2884 1181 2598 
Q 1431 2313 1872 2313 
Q 2253 2313 2512 2573 
Q 2772 2834 2772 3206 
Q 2772 3728 2514 4070 
Q 2256 4413 1834 4413 
Q 1444 4413 1187 4116 
Q 931 3819 931 3372 
z
" transform="scale(0.015625)"/>
       </defs>
       <use xlink:href="#MicrosoftYaHei-30"/>
       <use xlink:href="#MicrosoftYaHei-2e" transform="translate(58.642578 0)"/>
       <use xlink:href="#MicrosoftYaHei-39" transform="translate(82.714844 0)"/>
      </g>
     </g>
    </g>
    <g id="xtick_5">
     <g id="line2d_5">
      <g>
       <use xlink:href="#md1651d2164" x="238.78" y="315.16" style="stroke: #000000; stroke-width: 0.8"/>
      </g>
     </g>
     <g id="text_5">
      <!-- 1.0 -->
      <g transform="translate(231.712031 330.15375) scale(0.1 -0.1)">
       <defs>
        <path id="MicrosoftYaHei-31" d="M 1781 0 
L 1781 4141 
Q 1638 3997 1295 3819 
Q 953 3641 663 3569 
L 663 4169 
Q 1047 4275 1484 4508 
Q 1922 4741 2156 4947 
L 2388 4947 
L 2388 0 
L 1781 0 
z
" transform="scale(0.015625)"/>
       </defs>
       <use xlink:href="#MicrosoftYaHei-31"/>
       <use xlink:href="#MicrosoftYaHei-2e" transform="translate(58.642578 0)"/>
       <use xlink:href="#MicrosoftYaHei-30" transform="translate(82.714844 0)"/>
      </g>
     </g>
    </g>
    <g id="xtick_6">
     <g id="line2d_6">
      <g>
       <use xlink:href="#md1651d2164" x="281.466364" y="315.16" style="stroke: #000000; stroke-width: 0.8"/>
      </g>
     </g>
     <g id="text_6">
      <!-- 1.1 -->
      <g transform="translate(274.398395 330.15375) scale(0.1 -0.1)">
       <use xlink:href="#MicrosoftYaHei-31"/>
       <use xlink:href="#MicrosoftYaHei-2e" transform="translate(58.642578 0)"/>
       <use xlink:href="#MicrosoftYaHei-31" transform="translate(82.714844 0)"/>
      </g>
     </g>
    </g>
    <g id="xtick_7">
     <g id="line2d_7">
      <g>
       <use xlink:href="#md1651d2164" x="324.152727" y="315.16" style="stroke: #000000; stroke-width: 0.8"/>
      </g>
     </g>
     <g id="text_7">
      <!-- 1.2 -->
      <g transform="translate(317.084759 330.15375) scale(0.1 -0.1)">
       <defs>
        <path id="MicrosoftYaHei-32" d="M 2666 3572 
Q 2666 3963 2419 4186 
Q 2172 4409 1747 4409 
Q 1447 4409 1140 4256 
Q 834 4103 569 3819 
L 569 4413 
Q 806 4659 1107 4790 
Q 1409 4922 1816 4922 
Q 2472 4922 2872 4570 
Q 3272 4219 3272 3619 
Q 3272 3084 3026 2693 
Q 2781 2303 2188 1894 
Q 1581 1475 1376 1294 
Q 1172 1113 1090 947 
Q 1009 781 1009 544 
L 3416 544 
L 3416 0 
L 372 0 
L 372 241 
Q 372 659 486 951 
Q 600 1244 862 1520 
Q 1125 1797 1681 2184 
Q 2250 2584 2458 2886 
Q 2666 3188 2666 3572 
z
" transform="scale(0.015625)"/>
       </defs>
       <use xlink:href="#MicrosoftYaHei-31"/>
       <use xlink:href="#MicrosoftYaHei-2e" transform="translate(58.642578 0)"/>
       <use xlink:href="#MicrosoftYaHei-32" transform="translate(82.714844 0)"/>
      </g>
     </g>
    </g>
    <g id="xtick_8">
     <g id="line2d_8">
      <g>
       <use xlink:href="#md1651d2164" x="366.839091" y="315.16" style="stroke: #000000; stroke-width: 0.8"/>
      </g>
     </g>
     <g id="text_8">
      <!-- 1.3 -->
      <g transform="translate(359.771122 330.15375) scale(0.1 -0.1)">
       <defs>
        <path id="MicrosoftYaHei-33" d="M 447 809 
Q 944 425 1569 425 
Q 2069 425 2361 670 
Q 2653 916 2653 1328 
Q 2653 2247 1338 2247 
L 934 2247 
L 934 2753 
L 1319 2753 
Q 2484 2753 2484 3616 
Q 2484 4413 1594 4413 
Q 1084 4413 634 4069 
L 634 4647 
Q 1109 4922 1744 4922 
Q 2363 4922 2738 4598 
Q 3113 4275 3113 3759 
Q 3113 2809 2144 2538 
L 2144 2525 
Q 2669 2469 2973 2155 
Q 3278 1841 3278 1372 
Q 3278 719 2808 319 
Q 2338 -81 1556 -81 
Q 869 -81 447 175 
L 447 809 
z
" transform="scale(0.015625)"/>
       </defs>
       <use xlink:href="#MicrosoftYaHei-31"/>
       <use xlink:href="#MicrosoftYaHei-2e" transform="translate(58.642578 0)"/>
       <use xlink:href="#MicrosoftYaHei-33" transform="translate(82.714844 0)"/>
      </g>
     </g>
    </g>
    <g id="xtick_9">
     <g id="line2d_9">
      <g>
       <use xlink:href="#md1651d2164" x="409.525455" y="315.16" style="stroke: #000000; stroke-width: 0.8"/>
      </g>
     </g>
     <g id="text_9">
      <!-- 1.4 -->
      <g transform="translate(402.457486 330.15375) scale(0.1 -0.1)">
       <defs>
        <path id="MicrosoftYaHei-34" d="M 2906 4841 
L 2906 1644 
L 3631 1644 
L 3631 1138 
L 2906 1138 
L 2906 0 
L 2313 0 
L 2313 1138 
L 53 1138 
L 53 1616 
Q 656 2294 1265 3178 
Q 1875 4063 2272 4841 
L 2906 4841 
z
M 741 1644 
L 2313 1644 
L 2313 3950 
Q 1988 3366 1616 2817 
Q 1244 2269 741 1644 
z
" transform="scale(0.015625)"/>
       </defs>
       <use xlink:href="#MicrosoftYaHei-31"/>
       <use xlink:href="#MicrosoftYaHei-2e" transform="translate(58.642578 0)"/>
       <use xlink:href="#MicrosoftYaHei-34" transform="translate(82.714844 0)"/>
      </g>
     </g>
    </g>
    <g id="text_10">
     <!-- 分量排名 -->
     <g transform="translate(218.78 344.633438) scale(0.1 -0.1)">
      <defs>
       <path id="MicrosoftYaHei-5206" d="M 900 2559 
L 5056 2559 
Q 5025 1497 4963 484 
Q 4888 -684 3856 -678 
Q 3350 -684 2788 -647 
Q 2750 -384 2700 -116 
Q 3181 -184 3775 -191 
Q 4400 -203 4463 541 
Q 4513 1216 4538 2097 
L 2616 2097 
Q 2541 1053 2181 416 
Q 1706 -422 588 -878 
Q 425 -666 231 -459 
Q 1269 -72 1725 666 
Q 2053 1225 2103 2097 
L 900 2097 
L 900 2559 
z
M 3488 5159 
L 3938 5353 
Q 4625 3678 6350 2847 
Q 6069 2553 5944 2372 
Q 4225 3366 3488 5159 
z
M 50 2766 
Q 1338 3678 2250 5253 
L 2694 5009 
Q 1744 3347 413 2341 
Q 281 2534 50 2766 
z
" transform="scale(0.015625)"/>
       <path id="MicrosoftYaHei-91cf" d="M 113 -278 
L 2981 -278 
L 2981 78 
L 475 78 
L 475 403 
L 2981 403 
L 2981 759 
L 1494 759 
L 1494 597 
L 1069 597 
L 1069 2516 
L 5350 2516 
L 5350 597 
L 4925 597 
L 4925 759 
L 3419 759 
L 3419 403 
L 5931 403 
L 5931 78 
L 3419 78 
L 3419 -278 
L 6288 -278 
L 6288 -616 
L 113 -616 
L 113 -278 
z
M 1119 5072 
L 5306 5072 
L 5306 3284 
L 4881 3284 
L 4881 3453 
L 1544 3453 
L 1544 3284 
L 1119 3284 
L 1119 5072 
z
M 163 3153 
L 6263 3153 
L 6263 2816 
L 163 2816 
L 163 3153 
z
M 1544 3778 
L 4881 3778 
L 4881 4116 
L 1544 4116 
L 1544 3778 
z
M 4881 4747 
L 1544 4747 
L 1544 4416 
L 4881 4416 
L 4881 4747 
z
M 3419 1084 
L 4925 1084 
L 4925 1491 
L 3419 1491 
L 3419 1084 
z
M 1494 1084 
L 2981 1084 
L 2981 1491 
L 1494 1491 
L 1494 1084 
z
M 4925 2191 
L 3419 2191 
L 3419 1791 
L 4925 1791 
L 4925 2191 
z
M 1494 1791 
L 2981 1791 
L 2981 2191 
L 1494 2191 
L 1494 1791 
z
" transform="scale(0.015625)"/>
       <path id="MicrosoftYaHei-6392" d="M 4375 5309 
L 4863 5309 
L 4863 4159 
L 6188 4159 
L 6188 3684 
L 4863 3684 
L 4863 2609 
L 6038 2609 
L 6038 2134 
L 4863 2134 
L 4863 1047 
L 6294 1047 
L 6294 572 
L 4863 572 
L 4863 -841 
L 4375 -841 
L 4375 5309 
z
M 1844 1047 
L 3138 1047 
L 3138 2134 
L 2150 2134 
L 2150 2609 
L 3138 2609 
L 3138 3684 
L 2163 3684 
L 2163 4159 
L 3138 4159 
L 3138 5309 
L 3625 5309 
L 3625 -841 
L 3138 -841 
L 3138 572 
L 1844 572 
L 1844 1047 
z
M 131 4166 
L 875 4166 
L 875 5316 
L 1350 5316 
L 1350 4166 
L 1969 4166 
L 1969 3728 
L 1350 3728 
L 1350 2563 
Q 1650 2716 1938 2872 
Q 1956 2603 1988 2372 
Q 1681 2216 1350 2044 
L 1350 -134 
Q 1350 -772 669 -778 
Q 481 -784 156 -778 
Q 131 -528 75 -259 
Q 419 -284 613 -284 
Q 875 -284 875 3 
L 875 1797 
Q 525 1616 150 1416 
L 88 1966 
Q 491 2144 875 2328 
L 875 3728 
L 131 3728 
L 131 4166 
z
" transform="scale(0.015625)"/>
       <path id="MicrosoftYaHei-540d" d="M 2406 5328 
L 2894 5128 
Q 2688 4853 2475 4603 
L 5669 4603 
L 5669 4159 
Q 4506 2828 2600 1978 
L 5656 1978 
L 5656 -866 
L 5156 -866 
L 5156 -459 
L 1863 -459 
L 1863 -866 
L 1363 -866 
L 1363 1478 
Q 875 1297 350 1122 
Q 213 1359 63 1584 
Q 1463 1966 2588 2516 
Q 2200 2909 1750 3322 
L 2125 3647 
Q 2650 3178 3088 2778 
Q 4188 3384 5000 4172 
L 2094 4172 
Q 1388 3403 481 2753 
Q 306 2984 156 3159 
Q 1394 3966 2406 5328 
z
M 5156 1528 
L 1863 1528 
L 1863 -22 
L 5156 -22 
L 5156 1528 
z
" transform="scale(0.015625)"/>
      </defs>
      <use xlink:href="#MicrosoftYaHei-5206"/>
      <use xlink:href="#MicrosoftYaHei-91cf" transform="translate(100 0)"/>
      <use xlink:href="#MicrosoftYaHei-6392" transform="translate(200 0)"/>
      <use xlink:href="#MicrosoftYaHei-540d" transform="translate(300 0)"/>
     </g>
    </g>
   </g>
   <g id="matplotlib.axis_2">
    <g id="ytick_1">
     <g id="line2d_10">
      <defs>
       <path id="mc043ec6302" d="M 0 0 
L -3.5 0 
" style="stroke: #000000; stroke-width: 0.8"/>
      </defs>
      <g>
       <use xlink:href="#mc043ec6302" x="50.96" y="315.16" style="stroke: #000000; stroke-width: 0.8"/>
      </g>
     </g>
     <g id="text_11">
      <!-- 0 -->
      <g transform="translate(38.095938 319.156875) scale(0.1 -0.1)">
       <use xlink:href="#MicrosoftYaHei-30"/>
      </g>
     </g>
    </g>
    <g id="ytick_2">
     <g id="line2d_11">
      <g>
       <use xlink:href="#mc043ec6302" x="50.96" y="259.904829" style="stroke: #000000; stroke-width: 0.8"/>
      </g>
     </g>
     <g id="text_12">
      <!-- 20 -->
      <g transform="translate(32.231875 263.901704) scale(0.1 -0.1)">
       <use xlink:href="#MicrosoftYaHei-32"/>
       <use xlink:href="#MicrosoftYaHei-30" transform="translate(58.642578 0)"/>
      </g>
     </g>
    </g>
    <g id="ytick_3">
     <g id="line2d_12">
      <g>
       <use xlink:href="#mc043ec6302" x="50.96" y="204.649658" style="stroke: #000000; stroke-width: 0.8"/>
      </g>
     </g>
     <g id="text_13">
      <!-- 40 -->
      <g transform="translate(32.231875 208.646533) scale(0.1 -0.1)">
       <use xlink:href="#MicrosoftYaHei-34"/>
       <use xlink:href="#MicrosoftYaHei-30" transform="translate(58.642578 0)"/>
      </g>
     </g>
    </g>
    <g id="ytick_4">
     <g id="line2d_13">
      <g>
       <use xlink:href="#mc043ec6302" x="50.96" y="149.394488" style="stroke: #000000; stroke-width: 0.8"/>
      </g>
     </g>
     <g id="text_14">
      <!-- 60 -->
      <g transform="translate(32.231875 153.391363) scale(0.1 -0.1)">
       <use xlink:href="#MicrosoftYaHei-36"/>
       <use xlink:href="#MicrosoftYaHei-30" transform="translate(58.642578 0)"/>
      </g>
     </g>
    </g>
    <g id="ytick_5">
     <g id="line2d_14">
      <g>
       <use xlink:href="#mc043ec6302" x="50.96" y="94.139317" style="stroke: #000000; stroke-width: 0.8"/>
      </g>
     </g>
     <g id="text_15">
      <!-- 80 -->
      <g transform="translate(32.231875 98.136192) scale(0.1 -0.1)">
       <use xlink:href="#MicrosoftYaHei-38"/>
       <use xlink:href="#MicrosoftYaHei-30" transform="translate(58.642578 0)"/>
      </g>
     </g>
    </g>
    <g id="ytick_6">
     <g id="line2d_15">
      <g>
       <use xlink:href="#mc043ec6302" x="50.96" y="38.884146" style="stroke: #000000; stroke-width: 0.8"/>
      </g>
     </g>
     <g id="text_16">
      <!-- 100 -->
      <g transform="translate(26.367813 42.881021) scale(0.1 -0.1)">
       <use xlink:href="#MicrosoftYaHei-31"/>
       <use xlink:href="#MicrosoftYaHei-30" transform="translate(58.642578 0)"/>
       <use xlink:href="#MicrosoftYaHei-30" transform="translate(117.285156 0)"/>
      </g>
     </g>
    </g>
    <g id="text_17">
     <!-- 大小 -->
     <g transform="translate(19.881875 181.565625) rotate(-90) scale(0.1 -0.1)">
      <defs>
       <path id="MicrosoftYaHei-5927" d="M 88 -341 
Q 2666 806 2869 3103 
L 200 3103 
L 200 3591 
L 2891 3591 
Q 2906 4431 2906 5284 
L 3450 5284 
Q 3450 4444 3434 3591 
L 6206 3591 
L 6206 3103 
L 3425 3103 
Q 3869 606 6338 -191 
Q 6019 -497 5863 -697 
Q 3828 122 3203 2219 
Q 2716 322 475 -822 
Q 350 -653 88 -341 
z
" transform="scale(0.015625)"/>
       <path id="MicrosoftYaHei-5c0f" d="M 1513 3878 
L 2025 3697 
Q 1425 1984 625 478 
Q 413 609 113 759 
Q 831 1972 1513 3878 
z
M 4300 3641 
L 4769 3866 
Q 5563 2422 6319 828 
L 5750 559 
Q 4988 2328 4300 3641 
z
M 3000 5247 
L 3556 5247 
L 3556 66 
Q 3556 -747 2675 -747 
Q 2325 -747 1744 -728 
Q 1700 -453 1638 -141 
Q 2238 -197 2556 -197 
Q 3000 -197 3000 203 
L 3000 5247 
z
" transform="scale(0.015625)"/>
      </defs>
      <use xlink:href="#MicrosoftYaHei-5927"/>
      <use xlink:href="#MicrosoftYaHei-5c0f" transform="translate(100 0)"/>
     </g>
    </g>
   </g>
   <g id="patch_4">
    <path d="M 50.96 315.16 
L 50.96 27.97125 
" style="fill: none; stroke: #000000; stroke-width: 0.8; stroke-linejoin: miter; stroke-linecap: square"/>
   </g>
   <g id="patch_5">
    <path d="M 426.6 315.16 
L 426.6 27.97125 
" style="fill: none; stroke: #000000; stroke-width: 0.8; stroke-linejoin: miter; stroke-linecap: square"/>
   </g>
   <g id="patch_6">
    <path d="M 50.96 315.16 
L 426.6 315.16 
" style="fill: none; stroke: #000000; stroke-width: 0.8; stroke-linejoin: miter; stroke-linecap: square"/>
   </g>
   <g id="patch_7">
    <path d="M 50.96 27.97125 
L 426.6 27.97125 
" style="fill: none; stroke: #000000; stroke-width: 0.8; stroke-linejoin: miter; stroke-linecap: square"/>
   </g>
   <g id="text_18">
    <!-- 强连通分量大小分布 -->
    <g transform="translate(175.78 21.97125) scale(0.14 -0.14)">
     <defs>
      <path id="SimHei-5f3a" d="M 2350 25 
Q 3100 75 3950 225 
L 3950 1200 
L 3100 1200 
L 3100 975 
L 2625 975 
Q 2650 1725 2650 2050 
L 2650 2875 
L 3950 2875 
L 3950 3500 
L 2850 3500 
Q 2875 3900 2875 4275 
Q 2875 4675 2850 5025 
L 5525 5025 
Q 5500 4675 5500 4275 
Q 5500 3900 5525 3500 
L 4400 3500 
L 4400 2875 
L 5750 2875 
Q 5725 2575 5725 2075 
Q 5725 1575 5750 1200 
L 4400 1200 
L 4400 275 
L 5250 425 
Q 5150 575 5050 750 
Q 5300 825 5475 925 
Q 5925 200 6175 -250 
Q 5925 -350 5725 -500 
Q 5625 -250 5425 100 
Q 5125 50 4225 -137 
Q 3325 -325 2600 -525 
Q 2525 -200 2350 25 
z
M 600 -25 
Q 1250 -25 1400 50 
Q 1550 125 1575 325 
L 1675 1850 
L 500 1850 
Q 550 2350 562 2762 
Q 575 3175 575 3575 
L 1800 3575 
L 1800 4550 
L 1275 4550 
Q 825 4550 425 4525 
L 425 4950 
Q 850 4925 1275 4925 
L 2275 4925 
Q 2250 4525 2250 4075 
Q 2250 3650 2275 3200 
L 1075 3200 
L 1025 2225 
L 2175 2225 
Q 2125 1775 2100 1425 
L 2025 150 
Q 1975 -250 1637 -387 
Q 1300 -525 850 -600 
Q 775 -275 600 -25 
z
M 5050 3875 
L 5050 4650 
L 3325 4650 
L 3325 3875 
L 5050 3875 
z
M 3950 1575 
L 3950 2500 
L 3100 2500 
L 3100 1575 
L 3950 1575 
z
M 5250 1575 
L 5250 2500 
L 4400 2500 
L 4400 1575 
L 5250 1575 
z
" transform="scale(0.015625)"/>
      <path id="SimHei-8fde" d="M 3175 4350 
Q 3425 4925 3475 5200 
Q 3875 5025 4050 4975 
Q 3925 4875 3675 4350 
L 5025 4350 
Q 5550 4350 5850 4375 
L 5850 3925 
Q 5525 3950 5100 3950 
L 3475 3950 
Q 3350 3700 2875 2925 
L 3875 2925 
Q 3875 3400 3850 3725 
L 4350 3725 
Q 4325 3450 4325 2925 
Q 5575 2925 5650 2950 
L 5650 2475 
Q 5500 2525 4325 2525 
L 4325 1700 
L 5250 1700 
Q 5800 1700 5950 1725 
L 5950 1275 
Q 5650 1300 5250 1300 
L 4325 1300 
Q 4325 600 4350 75 
L 3850 75 
Q 3875 600 3875 1300 
Q 2150 1300 1975 1275 
L 1975 1725 
Q 2650 1700 3875 1700 
L 3875 2525 
L 3075 2525 
Q 2525 2500 2375 2450 
L 2200 2900 
Q 2400 3025 2587 3275 
Q 2775 3525 2975 3950 
Q 2325 3950 1975 3925 
L 1975 4375 
Q 2300 4350 3175 4350 
z
M 1625 2925 
Q 1600 2425 1600 2100 
L 1600 550 
Q 2325 -75 3825 -75 
Q 5350 -75 6175 0 
Q 6025 -250 5975 -550 
Q 4975 -550 4175 -537 
Q 3375 -525 2750 -412 
Q 2125 -300 1762 -50 
Q 1400 200 1175 -12 
Q 950 -225 675 -550 
Q 525 -350 275 -175 
Q 850 300 1100 475 
L 1100 2525 
Q 775 2525 400 2500 
L 400 2950 
Q 800 2925 1125 2925 
L 1625 2925 
z
M 975 4950 
Q 1450 4275 1775 3750 
Q 1550 3675 1300 3500 
Q 1175 3875 550 4650 
Q 775 4850 975 4950 
z
" transform="scale(0.015625)"/>
      <path id="SimHei-901a" d="M 5675 5050 
Q 5325 4650 4937 4300 
Q 4550 3950 4250 3650 
L 5700 3650 
Q 5675 3100 5675 2575 
L 5675 850 
Q 5700 525 5500 425 
Q 5300 325 4900 250 
Q 4850 475 4650 775 
Q 5025 800 5150 850 
Q 5275 900 5250 1325 
L 4125 1325 
L 4125 300 
L 3675 300 
L 3675 1325 
L 2575 1325 
L 2575 300 
L 2125 300 
Q 2150 1125 2150 1950 
Q 2150 2775 2125 3650 
L 3600 3650 
Q 3475 3850 3050 4200 
Q 3225 4350 3375 4525 
Q 3825 4175 4000 4000 
Q 4400 4425 4625 4650 
L 3025 4650 
Q 2525 4650 2150 4625 
L 2150 5075 
Q 2525 5050 2975 5050 
L 5675 5050 
z
M 1425 3000 
Q 1400 2500 1400 2100 
L 1400 600 
Q 2025 -25 3700 -25 
Q 5375 -25 6150 125 
Q 6000 -175 5975 -500 
Q 3975 -525 3137 -450 
Q 2300 -375 1775 -112 
Q 1250 150 1075 -37 
Q 900 -225 650 -650 
Q 425 -400 200 -225 
Q 600 125 975 425 
L 975 2575 
Q 775 2575 350 2550 
L 350 3025 
Q 750 3000 1425 3000 
z
M 5250 1725 
L 5250 2325 
L 4125 2325 
L 4125 1725 
L 5250 1725 
z
M 3675 1725 
L 3675 2325 
L 2575 2325 
L 2575 1725 
L 3675 1725 
z
M 5250 2725 
L 5250 3275 
L 4125 3275 
L 4125 2725 
L 5250 2725 
z
M 3675 2725 
L 3675 3275 
L 2575 3275 
L 2575 2725 
L 3675 2725 
z
M 1025 5025 
Q 1450 4425 1700 4075 
Q 1425 3925 1250 3725 
Q 1075 4100 600 4725 
Q 800 4875 1025 5025 
z
" transform="scale(0.015625)"/>
      <path id="SimHei-5206" d="M 1000 -650 
Q 825 -375 575 -225 
Q 975 -75 1300 137 
Q 1625 350 1875 662 
Q 2125 975 2250 1350 
Q 2375 1725 2425 2275 
Q 1850 2275 1500 2250 
L 1500 2775 
Q 1900 2750 2525 2750 
L 5025 2750 
Q 4975 2375 4950 2100 
L 4750 250 
Q 4700 -200 4350 -350 
Q 4000 -500 3575 -525 
Q 3550 -275 3325 50 
Q 3850 25 4037 87 
Q 4225 150 4275 525 
L 4450 2275 
L 2950 2275 
Q 2875 1625 2737 1187 
Q 2600 750 2350 425 
Q 2100 100 1750 -175 
Q 1400 -450 1000 -650 
z
M 3950 5175 
Q 4125 4650 4662 3975 
Q 5200 3300 6175 2800 
Q 5975 2625 5775 2275 
Q 5325 2600 4987 2887 
Q 4650 3175 4425 3425 
Q 4200 3675 3925 4137 
Q 3650 4600 3475 5000 
Q 3750 5075 3950 5175 
z
M 2700 4825 
Q 2475 4425 2325 4125 
Q 2175 3825 2025 3587 
Q 1875 3350 1575 2950 
Q 1275 2550 850 2125 
Q 625 2350 400 2475 
Q 900 2925 1187 3300 
Q 1475 3675 1737 4112 
Q 2000 4550 2200 5075 
Q 2400 4925 2700 4825 
z
" transform="scale(0.015625)"/>
      <path id="SimHei-91cf" d="M 5250 2500 
Q 5225 2200 5225 1700 
Q 5225 1225 5250 950 
L 3425 950 
L 3425 625 
L 4575 625 
Q 5000 625 5375 650 
L 5375 275 
Q 5025 300 4575 300 
L 3425 300 
L 3425 -75 
L 5125 -75 
Q 5525 -75 5925 -50 
L 5925 -425 
Q 5525 -400 5125 -400 
L 1275 -400 
Q 900 -400 475 -425 
L 475 -50 
Q 925 -50 1275 -75 
L 2975 -75 
L 2975 300 
L 1725 300 
Q 1350 300 975 250 
L 975 650 
Q 1375 625 1725 625 
L 2975 625 
L 2975 950 
L 1150 950 
Q 1175 1375 1175 1775 
Q 1175 2175 1150 2500 
L 5250 2500 
z
M 5200 4950 
Q 5175 4575 5175 4250 
Q 5175 3925 5200 3400 
L 1200 3400 
Q 1225 3925 1225 4250 
Q 1225 4575 1200 4950 
L 5200 4950 
z
M 4900 3100 
Q 5500 3125 6000 3150 
L 6000 2750 
Q 5500 2775 4925 2775 
L 1650 2775 
Q 975 2775 325 2750 
L 325 3150 
Q 975 3125 1650 3100 
L 4900 3100 
z
M 4725 3700 
L 4725 4025 
L 1675 4025 
L 1675 3700 
L 4725 3700 
z
M 4725 4350 
L 4725 4650 
L 1675 4650 
L 1675 4350 
L 4725 4350 
z
M 4750 1875 
L 4750 2175 
L 3425 2175 
L 3425 1875 
L 4750 1875 
z
M 2975 1875 
L 2975 2175 
L 1650 2175 
L 1650 1875 
L 2975 1875 
z
M 2975 1275 
L 2975 1550 
L 1650 1550 
L 1650 1275 
L 2975 1275 
z
M 4750 1275 
L 4750 1550 
L 3425 1550 
L 3425 1275 
L 4750 1275 
z
" transform="scale(0.015625)"/>
      <path id="SimHei-5927" d="M 2900 3400 
Q 2925 4275 2912 4575 
Q 2900 4875 2875 5150 
Q 3175 5100 3550 5075 
Q 3475 4825 3437 4350 
Q 3400 3875 3400 3400 
L 4675 3400 
Q 5350 3400 5925 3450 
L 5925 2900 
Q 5425 2925 4900 2925 
L 3425 2925 
Q 3525 2500 3775 2062 
Q 4025 1625 4287 1287 
Q 4550 950 5012 575 
Q 5475 200 6025 -50 
Q 5825 -200 5625 -550 
Q 5175 -300 4737 75 
Q 4300 450 3862 1062 
Q 3425 1675 3200 2200 
Q 3000 1650 2775 1287 
Q 2550 925 2287 625 
Q 2025 325 1612 25 
Q 1200 -275 675 -575 
Q 475 -275 225 -50 
Q 750 125 1262 450 
Q 1775 775 2100 1187 
Q 2425 1600 2625 2050 
Q 2825 2500 2875 2925 
L 1500 2925 
Q 900 2925 550 2900 
L 550 3450 
Q 900 3425 1500 3400 
L 2900 3400 
z
" transform="scale(0.015625)"/>
      <path id="SimHei-5c0f" d="M 3500 5150 
Q 3475 4800 3475 4200 
L 3475 175 
Q 3475 -300 3225 -425 
Q 2975 -550 2375 -600 
Q 2325 -300 2150 -25 
Q 2700 -25 2837 0 
Q 2975 25 2975 300 
L 2975 4200 
Q 2975 4650 2950 5150 
L 3500 5150 
z
M 2075 3400 
Q 1850 2775 1550 1962 
Q 1250 1150 1025 750 
Q 775 950 500 1000 
Q 925 1750 1175 2487 
Q 1425 3225 1500 3575 
Q 1800 3425 2075 3400 
z
M 4675 3600 
Q 5675 1800 5875 1150 
Q 5625 1100 5375 925 
Q 5000 2000 4225 3325 
Q 4425 3425 4675 3600 
z
" transform="scale(0.015625)"/>
      <path id="SimHei-5e03" d="M 2375 4225 
Q 2650 4775 2775 5300 
Q 3125 5175 3400 5075 
Q 3275 4975 2950 4225 
L 4800 4225 
Q 5550 4225 6025 4250 
L 6025 3800 
L 2725 3800 
Q 2325 3100 1975 2675 
L 3275 2675 
Q 3275 3225 3250 3575 
L 3775 3575 
Q 3750 3225 3750 2675 
L 5500 2675 
Q 5475 2225 5475 1775 
L 5475 750 
Q 5475 275 5212 150 
Q 4950 25 4450 -25 
Q 4400 325 4225 550 
Q 4800 550 4912 625 
Q 5025 700 5000 1025 
L 5000 2250 
L 3750 2250 
L 3750 550 
Q 3750 25 3775 -600 
L 3250 -600 
Q 3275 25 3275 550 
L 3275 2250 
L 2100 2250 
L 2100 0 
L 1600 0 
Q 1625 525 1625 1025 
L 1625 2225 
Q 1300 1850 650 1275 
Q 475 1475 200 1650 
Q 750 2025 1262 2562 
Q 1775 3100 2150 3800 
L 1550 3800 
Q 925 3800 400 3775 
L 400 4250 
Q 925 4225 1550 4225 
L 2375 4225 
z
" transform="scale(0.015625)"/>
     </defs>
     <use xlink:href="#SimHei-5f3a"/>
     <use xlink:href="#SimHei-8fde" transform="translate(100 0)"/>
     <use xlink:href="#SimHei-901a" transform="translate(200 0)"/>
     <use xlink:href="#SimHei-5206" transform="translate(300 0)"/>
     <use xlink:href="#SimHei-91cf" transform="translate(400 0)"/>
     <use xlink:href="#SimHei-5927" transform="translate(500 0)"/>
     <use xlink:href="#SimHei-5c0f" transform="translate(600 0)"/>
     <use xlink:href="#SimHei-5206" transform="translate(700 0)"/>
     <use xlink:href="#SimHei-5e03" transform="translate(800 0)"/>
    </g>
   </g>
  </g>
  <g id="axes_2">
   <g id="patch_8">
    <path d="M 477.56 315.16 
L 853.2 315.16 
L 853.2 27.97125 
L 477.56 27.97125 
z
" style="fill: #ffffff"/>
   </g>
   <g id="patch_9">
    <path d="M 494.634545 315.16 
L 836.125455 315.16 
L 836.125455 41.646905 
L 494.634545 41.646905 
z
" clip-path="url(#p3a7acf088d)" style="fill: #fa8072"/>
   </g>
   <g id="matplotlib.axis_3">
    <g id="xtick_10">
     <g id="line2d_16">
      <g>
       <use xlink:href="#md1651d2164" x="494.634545" y="315.16" style="stroke: #000000; stroke-width: 0.8"/>
      </g>
     </g>
     <g id="text_19">
      <!-- 0.6 -->
      <g transform="translate(487.566577 330.15375) scale(0.1 -0.1)">
       <use xlink:href="#MicrosoftYaHei-30"/>
       <use xlink:href="#MicrosoftYaHei-2e" transform="translate(58.642578 0)"/>
       <use xlink:href="#MicrosoftYaHei-36" transform="translate(82.714844 0)"/>
      </g>
     </g>
    </g>
    <g id="xtick_11">
     <g id="line2d_17">
      <g>
       <use xlink:href="#md1651d2164" x="537.320909" y="315.16" style="stroke: #000000; stroke-width: 0.8"/>
      </g>
     </g>
     <g id="text_20">
      <!-- 0.7 -->
      <g transform="translate(530.25294 330.15375) scale(0.1 -0.1)">
       <use xlink:href="#MicrosoftYaHei-30"/>
       <use xlink:href="#MicrosoftYaHei-2e" transform="translate(58.642578 0)"/>
       <use xlink:href="#MicrosoftYaHei-37" transform="translate(82.714844 0)"/>
      </g>
     </g>
    </g>
    <g id="xtick_12">
     <g id="line2d_18">
      <g>
       <use xlink:href="#md1651d2164" x="580.007273" y="315.16" style="stroke: #000000; stroke-width: 0.8"/>
      </g>
     </g>
     <g id="text_21">
      <!-- 0.8 -->
      <g transform="translate(572.939304 330.15375) scale(0.1 -0.1)">
       <use xlink:href="#MicrosoftYaHei-30"/>
       <use xlink:href="#MicrosoftYaHei-2e" transform="translate(58.642578 0)"/>
       <use xlink:href="#MicrosoftYaHei-38" transform="translate(82.714844 0)"/>
      </g>
     </g>
    </g>
    <g id="xtick_13">
     <g id="line2d_19">
      <g>
       <use xlink:href="#md1651d2164" x="622.693636" y="315.16" style="stroke: #000000; stroke-width: 0.8"/>
      </g>
     </g>
     <g id="text_22">
      <!-- 0.9 -->
      <g transform="translate(615.625668 330.15375) scale(0.1 -0.1)">
       <use xlink:href="#MicrosoftYaHei-30"/>
       <use xlink:href="#MicrosoftYaHei-2e" transform="translate(58.642578 0)"/>
       <use xlink:href="#MicrosoftYaHei-39" transform="translate(82.714844 0)"/>
      </g>
     </g>
    </g>
    <g id="xtick_14">
     <g id="line2d_20">
      <g>
       <use xlink:href="#md1651d2164" x="665.38" y="315.16" style="stroke: #000000; stroke-width: 0.8"/>
      </g>
     </g>
     <g id="text_23">
      <!-- 1.0 -->
      <g transform="translate(658.312031 330.15375) scale(0.1 -0.1)">
       <use xlink:href="#MicrosoftYaHei-31"/>
       <use xlink:href="#MicrosoftYaHei-2e" transform="translate(58.642578 0)"/>
       <use xlink:href="#MicrosoftYaHei-30" transform="translate(82.714844 0)"/>
      </g>
     </g>
    </g>
    <g id="xtick_15">
     <g id="line2d_21">
      <g>
       <use xlink:href="#md1651d2164" x="708.066364" y="315.16" style="stroke: #000000; stroke-width: 0.8"/>
      </g>
     </g>
     <g id="text_24">
      <!-- 1.1 -->
      <g transform="translate(700.998395 330.15375) scale(0.1 -0.1)">
       <use xlink:href="#MicrosoftYaHei-31"/>
       <use xlink:href="#MicrosoftYaHei-2e" transform="translate(58.642578 0)"/>
       <use xlink:href="#MicrosoftYaHei-31" transform="translate(82.714844 0)"/>
      </g>
     </g>
    </g>
    <g id="xtick_16">
     <g id="line2d_22">
      <g>
       <use xlink:href="#md1651d2164" x="750.752727" y="315.16" style="stroke: #000000; stroke-width: 0.8"/>
      </g>
     </g>
     <g id="text_25">
      <!-- 1.2 -->
      <g transform="translate(743.684759 330.15375) scale(0.1 -0.1)">
       <use xlink:href="#MicrosoftYaHei-31"/>
       <use xlink:href="#MicrosoftYaHei-2e" transform="translate(58.642578 0)"/>
       <use xlink:href="#MicrosoftYaHei-32" transform="translate(82.714844 0)"/>
      </g>
     </g>
    </g>
    <g id="xtick_17">
     <g id="line2d_23">
      <g>
       <use xlink:href="#md1651d2164" x="793.439091" y="315.16" style="stroke: #000000; stroke-width: 0.8"/>
      </g>
     </g>
     <g id="text_26">
      <!-- 1.3 -->
      <g transform="translate(786.371122 330.15375) scale(0.1 -0.1)">
       <use xlink:href="#MicrosoftYaHei-31"/>
       <use xlink:href="#MicrosoftYaHei-2e" transform="translate(58.642578 0)"/>
       <use xlink:href="#MicrosoftYaHei-33" transform="translate(82.714844 0)"/>
      </g>
     </g>
    </g>
    <g id="xtick_18">
     <g id="line2d_24">
      <g>
       <use xlink:href="#md1651d2164" x="836.125455" y="315.16" style="stroke: #000000; stroke-width: 0.8"/>
      </g>
     </g>
     <g id="text_27">
      <!-- 1.4 -->
      <g transform="translate(829.057486 330.15375) scale(0.1 -0.1)">
       <use xlink:href="#MicrosoftYaHei-31"/>
       <use xlink:href="#MicrosoftYaHei-2e" transform="translate(58.642578 0)"/>
       <use xlink:href="#MicrosoftYaHei-34" transform="translate(82.714844 0)"/>
      </g>
     </g>
    </g>
    <g id="text_28">
     <!-- 分量排名 -->
     <g transform="translate(645.38 344.633438) scale(0.1 -0.1)">
      <use xlink:href="#MicrosoftYaHei-5206"/>
      <use xlink:href="#MicrosoftYaHei-91cf" transform="translate(100 0)"/>
      <use xlink:href="#MicrosoftYaHei-6392" transform="translate(200 0)"/>
      <use xlink:href="#MicrosoftYaHei-540d" transform="translate(300 0)"/>
     </g>
    </g>
   </g>
   <g id="matplotlib.axis_4">
    <g id="ytick_7">
     <g id="line2d_25">
      <g>
       <use xlink:href="#mc043ec6302" x="477.56" y="315.16" style="stroke: #000000; stroke-width: 0.8"/>
      </g>
     </g>
     <g id="text_29">
      <!-- 0 -->
      <g transform="translate(464.695937 319.156875) scale(0.1 -0.1)">
       <use xlink:href="#MicrosoftYaHei-30"/>
      </g>
     </g>
    </g>
    <g id="ytick_8">
     <g id="line2d_26">
      <g>
       <use xlink:href="#mc043ec6302" x="477.56" y="259.904829" style="stroke: #000000; stroke-width: 0.8"/>
      </g>
     </g>
     <g id="text_30">
      <!-- 20 -->
      <g transform="translate(458.831875 263.901704) scale(0.1 -0.1)">
       <use xlink:href="#MicrosoftYaHei-32"/>
       <use xlink:href="#MicrosoftYaHei-30" transform="translate(58.642578 0)"/>
      </g>
     </g>
    </g>
    <g id="ytick_9">
     <g id="line2d_27">
      <g>
       <use xlink:href="#mc043ec6302" x="477.56" y="204.649658" style="stroke: #000000; stroke-width: 0.8"/>
      </g>
     </g>
     <g id="text_31">
      <!-- 40 -->
      <g transform="translate(458.831875 208.646533) scale(0.1 -0.1)">
       <use xlink:href="#MicrosoftYaHei-34"/>
       <use xlink:href="#MicrosoftYaHei-30" transform="translate(58.642578 0)"/>
      </g>
     </g>
    </g>
    <g id="ytick_10">
     <g id="line2d_28">
      <g>
       <use xlink:href="#mc043ec6302" x="477.56" y="149.394488" style="stroke: #000000; stroke-width: 0.8"/>
      </g>
     </g>
     <g id="text_32">
      <!-- 60 -->
      <g transform="translate(458.831875 153.391363) scale(0.1 -0.1)">
       <use xlink:href="#MicrosoftYaHei-36"/>
       <use xlink:href="#MicrosoftYaHei-30" transform="translate(58.642578 0)"/>
      </g>
     </g>
    </g>
    <g id="ytick_11">
     <g id="line2d_29">
      <g>
       <use xlink:href="#mc043ec6302" x="477.56" y="94.139317" style="stroke: #000000; stroke-width: 0.8"/>
      </g>
     </g>
     <g id="text_33">
      <!-- 80 -->
      <g transform="translate(458.831875 98.136192) scale(0.1 -0.1)">
       <use xlink:href="#MicrosoftYaHei-38"/>
       <use xlink:href="#MicrosoftYaHei-30" transform="translate(58.642578 0)"/>
      </g>
     </g>
    </g>
    <g id="ytick_12">
     <g id="line2d_30">
      <g>
       <use xlink:href="#mc043ec6302" x="477.56" y="38.884146" style="stroke: #000000; stroke-width: 0.8"/>
      </g>
     </g>
     <g id="text_34">
      <!-- 100 -->
      <g transform="translate(452.967812 42.881021) scale(0.1 -0.1)">
       <use xlink:href="#MicrosoftYaHei-31"/>
       <use xlink:href="#MicrosoftYaHei-30" transform="translate(58.642578 0)"/>
       <use xlink:href="#MicrosoftYaHei-30" transform="translate(117.285156 0)"/>
      </g>
     </g>
    </g>
    <g id="text_35">
     <!-- 大小 -->
     <g transform="translate(446.481875 181.565625) rotate(-90) scale(0.1 -0.1)">
      <use xlink:href="#MicrosoftYaHei-5927"/>
      <use xlink:href="#MicrosoftYaHei-5c0f" transform="translate(100 0)"/>
     </g>
    </g>
   </g>
   <g id="patch_10">
    <path d="M 477.56 315.16 
L 477.56 27.97125 
" style="fill: none; stroke: #000000; stroke-width: 0.8; stroke-linejoin: miter; stroke-linecap: square"/>
   </g>
   <g id="patch_11">
    <path d="M 853.2 315.16 
L 853.2 27.97125 
" style="fill: none; stroke: #000000; stroke-width: 0.8; stroke-linejoin: miter; stroke-linecap: square"/>
   </g>
   <g id="patch_12">
    <path d="M 477.56 315.16 
L 853.2 315.16 
" style="fill: none; stroke: #000000; stroke-width: 0.8; stroke-linejoin: miter; stroke-linecap: square"/>
   </g>
   <g id="patch_13">
    <path d="M 477.56 27.97125 
L 853.2 27.97125 
" style="fill: none; stroke: #000000; stroke-width: 0.8; stroke-linejoin: miter; stroke-linecap: square"/>
   </g>
   <g id="text_36">
    <!-- 弱连通分量大小分布 -->
    <g transform="translate(602.38 21.97125) scale(0.14 -0.14)">
     <defs>
      <path id="SimHei-5f31" d="M 4475 -100 
Q 4975 -75 5112 -25 
Q 5250 25 5262 137 
Q 5275 250 5300 1025 
Q 4100 600 3475 275 
Q 3425 525 3200 775 
Q 3675 875 4187 1050 
Q 4700 1225 5300 1450 
L 5300 2325 
L 3475 2325 
Q 3500 2775 3525 3137 
Q 3550 3500 3550 3875 
L 5300 3875 
L 5300 4600 
L 4325 4600 
Q 3975 4600 3450 4575 
L 3450 5000 
Q 3975 4975 4325 4975 
L 5750 4975 
Q 5725 4625 5725 4225 
Q 5725 3850 5750 3450 
L 4000 3450 
L 3950 2700 
L 5800 2700 
Q 5750 2150 5725 1187 
Q 5700 225 5675 -12 
Q 5650 -250 5475 -387 
Q 5300 -525 4675 -625 
Q 4650 -325 4475 -100 
z
M 1650 -100 
Q 2225 -75 2350 12 
Q 2475 100 2475 950 
Q 1250 450 750 150 
Q 625 425 450 600 
Q 850 750 1300 912 
Q 1750 1075 2475 1400 
L 2475 2325 
L 750 2325 
Q 800 2875 812 3200 
Q 825 3525 875 3875 
L 2475 3875 
L 2475 4600 
L 1600 4600 
Q 1075 4600 750 4550 
L 750 5000 
Q 1075 4975 1550 4975 
L 2950 4975 
Q 2925 4625 2925 4225 
Q 2925 3850 2950 3450 
L 1275 3450 
L 1225 2700 
L 2950 2700 
Q 2925 2125 2912 1100 
Q 2900 75 2850 -100 
Q 2800 -275 2612 -375 
Q 2425 -475 1875 -625 
Q 1800 -350 1650 -100 
z
M 3600 1925 
Q 3800 2025 3975 2175 
Q 4250 1850 4600 1425 
Q 4375 1350 4200 1175 
Q 3925 1650 3600 1925 
z
M 1200 2175 
Q 1475 1900 1825 1475 
Q 1650 1350 1500 1200 
Q 1125 1650 900 1900 
Q 1075 2050 1200 2175 
z
" transform="scale(0.015625)"/>
     </defs>
     <use xlink:href="#SimHei-5f31"/>
     <use xlink:href="#SimHei-8fde" transform="translate(100 0)"/>
     <use xlink:href="#SimHei-901a" transform="translate(200 0)"/>
     <use xlink:href="#SimHei-5206" transform="translate(300 0)"/>
     <use xlink:href="#SimHei-91cf" transform="translate(400 0)"/>
     <use xlink:href="#SimHei-5927" transform="translate(500 0)"/>
     <use xlink:href="#SimHei-5c0f" transform="translate(600 0)"/>
     <use xlink:href="#SimHei-5206" transform="translate(700 0)"/>
     <use xlink:href="#SimHei-5e03" transform="translate(800 0)"/>
    </g>
   </g>
  </g>
 </g>
 <defs>
  <clipPath id="p3712e16fb1">
   <rect x="50.96" y="27.97125" width="375.64" height="287.18875"/>
  </clipPath>
  <clipPath id="p3a7acf088d">
   <rect x="477.56" y="27.97125" width="375.64" height="287.18875"/>
  </clipPath>
 </defs>
</svg>
